<svg width="500" height="292" viewBox="0 0 500 292" fill="none" xmlns="http://www.w3.org/2000/svg">
<g opacity="0.3">
<path d="M488.647 11.2519H12.5547V279.889H488.647V11.2519Z" fill="#575757" fill-opacity="0.1"/>
<path d="M493.259 291.141H6.74312C4.9553 291.139 3.24121 290.428 1.97703 289.164C0.712839 287.899 0.00182001 286.185 0 284.397L0 6.74313C0.00182001 4.9553 0.712839 3.24121 1.97703 1.97703C3.24121 0.71284 4.9553 0.00182001 6.74312 0H493.259C495.046 0.00231621 496.76 0.713555 498.024 1.97769C499.287 3.24182 499.998 4.95562 500 6.74313V284.397C499.998 286.185 499.287 287.899 498.023 289.164C496.759 290.428 495.045 291.139 493.257 291.141H493.259Z" fill="#575757" fill-opacity="0.1"/>
<path d="M95.625 26.25H33.125C31.7443 26.25 30.625 27.3693 30.625 28.75V248.75C30.625 250.131 31.7443 251.25 33.125 251.25H95.625C97.0057 251.25 98.125 250.131 98.125 248.75V28.75C98.125 27.3693 97.0057 26.25 95.625 26.25Z" fill="#575757"/>
<path d="M58.1245 35.625H70.6245C71.6191 35.625 72.5729 36.0201 73.2762 36.7233C73.9794 37.4266 74.3745 38.3804 74.3745 39.375V41.875C74.3745 42.8696 73.9794 43.8234 73.2762 44.5267C72.5729 45.2299 71.6191 45.625 70.6245 45.625H58.1245C57.1299 45.625 56.1761 45.2299 55.4729 44.5267C54.7696 43.8234 54.3745 42.8696 54.3745 41.875V39.375C54.3745 38.3804 54.7696 37.4266 55.4729 36.7233C56.1761 36.0201 57.1299 35.625 58.1245 35.625Z" fill="white" fill-opacity="0.7"/>
<path d="M41.875 231.25H86.875C87.538 231.25 88.1739 231.513 88.6428 231.982C89.1116 232.451 89.375 233.087 89.375 233.75V238.75C89.375 239.413 89.1116 240.049 88.6428 240.518C88.1739 240.987 87.538 241.25 86.875 241.25H41.875C41.212 241.25 40.5761 240.987 40.1072 240.518C39.6384 240.049 39.375 239.413 39.375 238.75V233.75C39.375 233.087 39.6384 232.451 40.1072 231.982C40.5761 231.513 41.212 231.25 41.875 231.25Z" fill="white" fill-opacity="0.7"/>
<path d="M121.25 26.25H166.25C166.913 26.25 167.549 26.5134 168.018 26.9822C168.487 27.4511 168.75 28.087 168.75 28.75V33.75C168.75 34.413 168.487 35.0489 168.018 35.5178C167.549 35.9866 166.913 36.25 166.25 36.25H121.25C120.587 36.25 119.951 35.9866 119.482 35.5178C119.013 35.0489 118.75 34.413 118.75 33.75V28.75C118.75 28.087 119.013 27.4511 119.482 26.9822C119.951 26.5134 120.587 26.25 121.25 26.25Z" fill="#575757" fill-opacity="0.5"/>
<path d="M84.375 55.625H44.375C41.6136 55.625 39.375 57.8636 39.375 60.625C39.375 63.3864 41.6136 65.625 44.375 65.625H84.375C87.1364 65.625 89.375 63.3864 89.375 60.625C89.375 57.8636 87.1364 55.625 84.375 55.625Z" fill="white" fill-opacity="0.7"/>
<path d="M401.25 26.25H446.25C446.913 26.25 447.549 26.5134 448.018 26.9822C448.487 27.4511 448.75 28.087 448.75 28.75V33.75C448.75 34.413 448.487 35.0489 448.018 35.5178C447.549 35.9866 446.913 36.25 446.25 36.25H401.25C400.587 36.25 399.951 35.9866 399.482 35.5178C399.013 35.0489 398.75 34.413 398.75 33.75V28.75C398.75 28.087 399.013 27.4511 399.482 26.9822C399.951 26.5134 400.587 26.25 401.25 26.25Z" fill="#575757"/>
<path d="M84.375 70.625H44.375C41.6136 70.625 39.375 72.8636 39.375 75.625C39.375 78.3864 41.6136 80.625 44.375 80.625H84.375C87.1364 80.625 89.375 78.3864 89.375 75.625C89.375 72.8636 87.1364 70.625 84.375 70.625Z" fill="white" fill-opacity="0.2"/>
<path d="M84.375 85.625H44.375C41.6136 85.625 39.375 87.8636 39.375 90.625C39.375 93.3864 41.6136 95.625 44.375 95.625H84.375C87.1364 95.625 89.375 93.3864 89.375 90.625C89.375 87.8636 87.1364 85.625 84.375 85.625Z" fill="white" fill-opacity="0.2"/>
<path d="M84.375 100.625H44.375C41.6136 100.625 39.375 102.864 39.375 105.625C39.375 108.386 41.6136 110.625 44.375 110.625H84.375C87.1364 110.625 89.375 108.386 89.375 105.625C89.375 102.864 87.1364 100.625 84.375 100.625Z" fill="white" fill-opacity="0.2"/>
<path d="M84.375 115.625H44.375C41.6136 115.625 39.375 117.864 39.375 120.625C39.375 123.386 41.6136 125.625 44.375 125.625H84.375C87.1364 125.625 89.375 123.386 89.375 120.625C89.375 117.864 87.1364 115.625 84.375 115.625Z" fill="white" fill-opacity="0.2"/>
<path d="M220.083 50H124.083C121.138 50 118.75 52.2386 118.75 55V100C118.75 102.761 121.138 105 124.083 105H220.083C223.029 105 225.417 102.761 225.417 100V55C225.417 52.2386 223.029 50 220.083 50Z" fill="#575757"/>
<path d="M331.75 50H235.75C232.804 50 230.417 52.2386 230.417 55V100C230.417 102.761 232.804 105 235.75 105H331.75C334.695 105 337.083 102.761 337.083 100V55C337.083 52.2386 334.695 50 331.75 50Z" fill="#575757"/>
<path d="M443.417 50H347.417C344.471 50 342.083 52.2386 342.083 55V100C342.083 102.761 344.471 105 347.417 105H443.417C446.362 105 448.75 102.761 448.75 100V55C448.75 52.2386 446.362 50 443.417 50Z" fill="#575757"/>
<path d="M438.75 112.5H128.75C123.227 112.5 118.75 117.194 118.75 122.985V145.265C118.75 151.056 123.227 155.75 128.75 155.75H438.75C444.273 155.75 448.75 151.056 448.75 145.265V122.985C448.75 117.194 444.273 112.5 438.75 112.5Z" fill="#575757" fill-opacity="0.5"/>
<path d="M438.75 160.75H128.75C123.227 160.75 118.75 165.444 118.75 171.235V193.515C118.75 199.306 123.227 204 128.75 204H438.75C444.273 204 448.75 199.306 448.75 193.515V171.235C448.75 165.444 444.273 160.75 438.75 160.75Z" fill="#575757" fill-opacity="0.5"/>
<path d="M438.75 209H128.75C123.227 209 118.75 213.694 118.75 219.485V241.765C118.75 247.556 123.227 252.25 128.75 252.25H438.75C444.273 252.25 448.75 247.556 448.75 241.765V219.485C448.75 213.694 444.273 209 438.75 209Z" fill="#575757" fill-opacity="0.5"/>
</g>
</svg>
