<svg width="495" height="300" viewBox="0 0 495 300" fill="none" xmlns="http://www.w3.org/2000/svg">
<g opacity="0.3">
<path d="M359.456 300H125.158V65.7017H359.456V300Z" fill="#1E1E1E" fill-opacity="0.2"/>
<path d="M359.456 300H125.158V65.7017H359.456V300ZM128.62 296.538H355.995V69.1636H128.62V296.538Z" fill="#575757" fill-opacity="0.1"/>
<path d="M487.265 57.1053H357.475C353.675 57.1053 350.595 60.1859 350.595 63.986V164.789C350.595 168.589 353.675 171.67 357.475 171.67H487.265C491.065 171.67 494.145 168.589 494.145 164.789V63.986C494.145 60.1859 491.065 57.1053 487.265 57.1053Z" fill="#575757" fill-opacity="0.1"/>
<path d="M437.621 133.526H406.446C404.922 133.526 403.686 134.762 403.686 136.287C403.686 137.811 404.922 139.047 406.446 139.047H437.621C439.145 139.047 440.381 137.811 440.381 136.287C440.381 134.762 439.145 133.526 437.621 133.526Z" fill="#575757"/>
<path d="M442.304 144.588H401.644C400.119 144.588 398.883 145.824 398.883 147.348C398.883 148.873 400.119 150.109 401.644 150.109H442.304C443.829 150.109 445.065 148.873 445.065 147.348C445.065 145.824 443.829 144.588 442.304 144.588Z" fill="#575757"/>
<path d="M445.992 102.628C445.991 106.774 444.914 110.848 442.868 114.453C440.821 118.058 437.875 121.07 434.316 123.196C430.757 125.322 426.708 126.489 422.564 126.583C418.419 126.676 414.322 125.693 410.671 123.73L410.666 123.725C406.937 121.716 403.807 118.755 401.596 115.142C399.384 111.529 398.17 107.395 398.076 103.16C397.983 98.9251 399.013 94.7411 401.063 91.0344C403.114 87.3276 406.11 84.2305 409.746 82.0587C413.383 79.8869 417.531 78.718 421.766 78.6711C426.002 78.6242 430.174 79.7009 433.858 81.7916C437.542 83.8823 440.606 86.9122 442.738 90.5726C444.869 94.2331 445.993 98.3932 445.993 102.629L445.992 102.628Z" fill="#575757"/>
<path d="M422.154 101.464C425.751 101.464 428.668 98.5483 428.668 94.951C428.668 91.3537 425.751 88.4375 422.154 88.4375C418.557 88.4375 415.641 91.3537 415.641 94.951C415.641 98.5483 418.557 101.464 422.154 101.464Z" fill="white"/>
<path d="M433.276 114.922C425.995 117.479 418.055 117.448 410.793 114.836H410.789L415.642 105.258H428.669L433.276 114.922Z" fill="white"/>
<path d="M136.67 0.00100708H6.88075C3.08062 0.00100708 0 3.08162 0 6.88176V107.685C0 111.485 3.08062 114.566 6.88075 114.566H136.67C140.47 114.566 143.551 111.485 143.551 107.685V6.88176C143.551 3.08162 140.47 0.00100708 136.67 0.00100708Z" fill="#575757" fill-opacity="0.1"/>
<path d="M102.035 30.6847C95.9686 24.2438 87.6174 20.4401 78.7764 20.0909V53.9434L102.035 30.6847Z" fill="#575757" fill-opacity="0.1"/>
<path d="M102.035 34.9009L78.7764 58.1596H111.28C111.292 49.5086 107.983 41.1831 102.035 34.9009Z" fill="#E4E4E4"/>
<path d="M111.32 60.5909C111.322 62.7008 111.126 64.8063 110.737 66.88C110.707 67.0442 110.675 67.2068 110.642 67.3694C109.908 70.9866 108.583 74.4583 106.72 77.6449C106.622 77.8169 106.519 77.9889 106.417 78.1541C104.581 81.1744 102.286 83.89 99.6135 86.2028C99.481 86.3181 99.3486 86.4325 99.2144 86.5469C93.4711 91.3789 86.2804 94.1577 78.7803 94.4434V60.5909H111.32Z" fill="#F0F0F0"/>
<path d="M75.4925 94.4727C75.9424 94.4727 76.3896 94.4615 76.8351 94.4434V60.5901L52.2158 85.2095C58.4999 91.1676 66.8329 94.4836 75.4925 94.4718V94.4727Z" fill="#CACACA"/>
<path d="M75.5378 24.276C66.5516 24.276 57.9334 27.8458 51.5792 34.2C45.225 40.5542 41.6553 49.1723 41.6553 58.1585H76.9191V24.3061C76.459 24.288 75.9988 24.276 75.5378 24.276Z" fill="#575757"/>
<path d="M67.4549 60.591L60.3316 67.7143L60.0985 67.9474L60.0933 67.9526L53.8818 74.1633L53.6452 74.3998L46.9365 81.1086L46.7 81.3451L42.8373 85.2061C39.4834 82.0433 36.8122 78.2275 34.9883 73.9937C33.1643 69.7599 32.2261 65.1976 32.2315 60.5876L67.4549 60.591Z" fill="#575757"/>
<path d="M169.935 166.423H314.68C315.047 166.417 315.411 166.483 315.751 166.619C316.092 166.755 316.402 166.957 316.664 167.214C316.925 167.471 317.133 167.778 317.275 168.116C317.417 168.454 317.49 168.817 317.49 169.184C317.49 169.55 317.417 169.913 317.275 170.251C317.133 170.589 316.925 170.896 316.664 171.153C316.402 171.41 316.092 171.612 315.751 171.748C315.411 171.884 315.047 171.95 314.68 171.944H169.935C169.211 171.931 168.521 171.635 168.014 171.118C167.507 170.602 167.223 169.907 167.223 169.184C167.223 168.46 167.507 167.765 168.014 167.249C168.521 166.732 169.211 166.436 169.935 166.423Z" fill="#575757"/>
<path d="M169.935 180.215H314.68C315.047 180.208 315.411 180.275 315.751 180.411C316.092 180.546 316.402 180.749 316.664 181.006C316.925 181.263 317.133 181.569 317.275 181.907C317.417 182.245 317.49 182.608 317.49 182.975C317.49 183.342 317.417 183.705 317.275 184.043C317.133 184.381 316.925 184.687 316.664 184.944C316.402 185.201 316.092 185.404 315.751 185.54C315.411 185.675 315.047 185.742 314.68 185.735H169.935C169.211 185.723 168.521 185.426 168.014 184.91C167.507 184.394 167.223 183.699 167.223 182.975C167.223 182.251 167.507 181.556 168.014 181.04C168.521 180.524 169.211 180.227 169.935 180.215Z" fill="#575757"/>
<path d="M169.935 194.006H314.68C315.047 194 315.411 194.066 315.751 194.202C316.092 194.338 316.402 194.54 316.664 194.797C316.925 195.054 317.133 195.361 317.275 195.699C317.417 196.037 317.49 196.4 317.49 196.767C317.49 197.133 317.417 197.496 317.275 197.835C317.133 198.173 316.925 198.479 316.664 198.736C316.402 198.993 316.092 199.195 315.751 199.331C315.411 199.467 315.047 199.534 314.68 199.527H169.935C169.211 199.514 168.521 199.218 168.014 198.702C167.507 198.185 167.223 197.491 167.223 196.767C167.223 196.043 167.507 195.348 168.014 194.832C168.521 194.316 169.211 194.019 169.935 194.006Z" fill="#575757"/>
<path d="M169.935 106.998H314.68C315.047 106.991 315.411 107.058 315.751 107.193C316.092 107.329 316.402 107.532 316.664 107.789C316.925 108.046 317.133 108.352 317.275 108.69C317.417 109.028 317.49 109.391 317.49 109.758C317.49 110.125 317.417 110.488 317.275 110.826C317.133 111.164 316.925 111.47 316.664 111.727C316.402 111.984 316.092 112.187 315.751 112.322C315.411 112.458 315.047 112.525 314.68 112.518H169.935C169.211 112.506 168.521 112.209 168.014 111.693C167.507 111.177 167.223 110.482 167.223 109.758C167.223 109.034 167.507 108.339 168.014 107.823C168.521 107.307 169.211 107.01 169.935 106.998Z" fill="#575757"/>
<path d="M169.935 120.788H314.68C315.047 120.782 315.411 120.848 315.751 120.984C316.092 121.12 316.402 121.322 316.664 121.579C316.925 121.836 317.133 122.143 317.275 122.481C317.417 122.819 317.49 123.182 317.49 123.549C317.49 123.915 317.417 124.278 317.275 124.617C317.133 124.955 316.925 125.261 316.664 125.518C316.402 125.775 316.092 125.977 315.751 126.113C315.411 126.249 315.047 126.316 314.68 126.309H169.935C169.211 126.296 168.521 126 168.014 125.484C167.507 124.967 167.223 124.273 167.223 123.549C167.223 122.825 167.507 122.13 168.014 121.614C168.521 121.097 169.211 120.801 169.935 120.788Z" fill="#575757"/>
<path d="M169.935 134.58H314.68C315.047 134.573 315.411 134.64 315.751 134.776C316.092 134.912 316.402 135.114 316.664 135.371C316.925 135.628 317.133 135.934 317.275 136.272C317.417 136.611 317.49 136.974 317.49 137.34C317.49 137.707 317.417 138.07 317.275 138.408C317.133 138.746 316.925 139.053 316.664 139.31C316.402 139.567 316.092 139.769 315.751 139.905C315.411 140.041 315.047 140.107 314.68 140.101H169.935C169.211 140.088 168.521 139.791 168.014 139.275C167.507 138.759 167.223 138.064 167.223 137.34C167.223 136.616 167.507 135.922 168.014 135.405C168.521 134.889 169.211 134.593 169.935 134.58Z" fill="#575757"/>
<path d="M325.511 242.856H422.765V183.125H421.269V240.76H325.511V242.856Z" fill="#575757" fill-opacity="0.5"/>
<path d="M422.521 183.124C427.301 183.124 431.176 179.249 431.176 174.469C431.176 169.689 427.301 165.814 422.521 165.814C417.741 165.814 413.866 169.689 413.866 174.469C413.866 179.249 417.741 183.124 422.521 183.124Z" fill="#575757"/>
<path d="M324.762 245.523C326.674 245.523 328.224 243.973 328.224 242.061C328.224 240.149 326.674 238.599 324.762 238.599C322.85 238.599 321.3 240.149 321.3 242.061C321.3 243.973 322.85 245.523 324.762 245.523Z" fill="#575757"/>
<path d="M173.857 155.056H71.5684V110.205H73.1415V153.482H173.858L173.857 155.056Z" fill="#575757" fill-opacity="0.5"/>
<path d="M71.7752 126.31C76.5553 126.31 80.4304 122.435 80.4304 117.655C80.4304 112.874 76.5553 108.999 71.7752 108.999C66.9951 108.999 63.1201 112.874 63.1201 117.655C63.1201 122.435 66.9951 126.31 71.7752 126.31Z" fill="#575757"/>
<path d="M173.858 157.388C175.77 157.388 177.32 155.838 177.32 153.926C177.32 152.014 175.77 150.464 173.858 150.464C171.946 150.464 170.396 152.014 170.396 153.926C170.396 155.838 171.946 157.388 173.858 157.388Z" fill="#575757"/>
<path d="M169.935 226.211H314.68C315.047 226.204 315.411 226.271 315.751 226.407C316.092 226.542 316.402 226.745 316.664 227.002C316.925 227.259 317.133 227.565 317.275 227.903C317.417 228.241 317.49 228.604 317.49 228.971C317.49 229.338 317.417 229.701 317.275 230.039C317.133 230.377 316.925 230.684 316.664 230.941C316.402 231.197 316.092 231.4 315.751 231.536C315.411 231.671 315.047 231.738 314.68 231.732H169.935C169.211 231.719 168.521 231.422 168.014 230.906C167.507 230.39 167.223 229.695 167.223 228.971C167.223 228.247 167.507 227.552 168.014 227.036C168.521 226.52 169.211 226.223 169.935 226.211Z" fill="#575757"/>
<path d="M169.935 240.002H314.68C315.047 239.995 315.411 240.062 315.751 240.198C316.092 240.333 316.402 240.536 316.664 240.793C316.925 241.05 317.133 241.356 317.275 241.694C317.417 242.032 317.49 242.395 317.49 242.762C317.49 243.129 317.417 243.492 317.275 243.83C317.133 244.168 316.925 244.475 316.664 244.732C316.402 244.989 316.092 245.191 315.751 245.327C315.411 245.462 315.047 245.529 314.68 245.523H169.935C169.211 245.51 168.521 245.213 168.014 244.697C167.507 244.181 167.223 243.486 167.223 242.762C167.223 242.038 167.507 241.343 168.014 240.827C168.521 240.311 169.211 240.014 169.935 240.002Z" fill="#575757"/>
<path d="M169.935 253.793H314.68C315.047 253.787 315.411 253.853 315.751 253.989C316.092 254.125 316.402 254.327 316.664 254.584C316.925 254.841 317.133 255.148 317.275 255.486C317.417 255.824 317.49 256.187 317.49 256.554C317.49 256.92 317.417 257.283 317.275 257.621C317.133 257.96 316.925 258.266 316.664 258.523C316.402 258.78 316.092 258.982 315.751 259.118C315.411 259.254 315.047 259.321 314.68 259.314H169.935C169.211 259.301 168.521 259.005 168.014 258.489C167.507 257.972 167.223 257.277 167.223 256.554C167.223 255.83 167.507 255.135 168.014 254.619C168.521 254.102 169.211 253.806 169.935 253.793Z" fill="#575757"/>
</g>
</svg>
