<svg width="495" height="300" viewBox="0 0 495 300" fill="none" xmlns="http://www.w3.org/2000/svg">
<path d="M359.456 300H125.158V65.7018H359.456V300Z" fill="#1E1E1E" fill-opacity="0.2"/>
<path d="M359.456 300H125.158V65.7018H359.456V300ZM128.62 296.538H355.994V69.1637H128.62V296.538Z" fill="#575757" fill-opacity="0.1"/>
<path d="M487.264 57.1052H357.475C353.675 57.1052 350.594 60.1858 350.594 63.9859V164.789C350.594 168.589 353.675 171.67 357.475 171.67H487.264C491.064 171.67 494.145 168.589 494.145 164.789V63.9859C494.145 60.1858 491.064 57.1052 487.264 57.1052Z" fill="#8B5CF6" fill-opacity="0.1"/>
<path d="M437.62 133.526H406.445C404.921 133.526 403.685 134.762 403.685 136.287C403.685 137.811 404.921 139.047 406.445 139.047H437.62C439.144 139.047 440.38 137.811 440.38 136.287C440.38 134.762 439.144 133.526 437.62 133.526Z" fill="#8B5CF6"/>
<path d="M442.304 144.588H401.644C400.119 144.588 398.883 145.824 398.883 147.348C398.883 148.873 400.119 150.109 401.644 150.109H442.304C443.829 150.109 445.065 148.873 445.065 147.348C445.065 145.824 443.829 144.588 442.304 144.588Z" fill="#8B5CF6"/>
<path d="M445.992 102.628C445.99 106.773 444.914 110.848 442.867 114.453C440.821 118.058 437.874 121.07 434.315 123.196C430.757 125.322 426.708 126.489 422.563 126.582C418.419 126.676 414.321 125.693 410.67 123.73L410.666 123.725C406.937 121.716 403.807 118.754 401.595 115.142C399.384 111.529 398.169 107.395 398.076 103.16C397.982 98.925 399.013 94.741 401.063 91.0343C403.113 87.3275 406.109 84.2304 409.746 82.0586C413.383 79.8868 417.53 78.7179 421.766 78.671C426.001 78.6241 430.174 79.7008 433.858 81.7915C437.542 83.8822 440.606 86.9121 442.737 90.5725C444.869 94.233 445.992 98.3931 445.993 102.629L445.992 102.628Z" fill="#8B5CF6"/>
<path d="M422.153 101.464C425.75 101.464 428.667 98.5482 428.667 94.9509C428.667 91.3536 425.75 88.4374 422.153 88.4374C418.556 88.4374 415.64 91.3536 415.64 94.9509C415.64 98.5482 418.556 101.464 422.153 101.464Z" fill="white"/>
<path d="M433.276 114.922C425.994 117.478 418.055 117.448 410.793 114.836H410.789L415.641 105.257H428.668L433.276 114.922Z" fill="white"/>
<path d="M136.67 0.00100708H6.88075C3.08062 0.00100708 0 3.08162 0 6.88176V107.685C0 111.485 3.08062 114.566 6.88075 114.566H136.67C140.47 114.566 143.551 111.485 143.551 107.685V6.88176C143.551 3.08162 140.47 0.00100708 136.67 0.00100708Z" fill="#8B5CF6" fill-opacity="0.1"/>
<path d="M102.035 30.6847C95.9686 24.2438 87.6174 20.4401 78.7764 20.0909V53.9434L102.035 30.6847Z" fill="#8B5CF6" fill-opacity="0.7"/>
<path d="M102.035 34.9009L78.7764 58.1596H111.28C111.292 49.5086 107.983 41.1831 102.035 34.9009Z" fill="#E4E4E4"/>
<path d="M111.32 60.5911C111.321 62.701 111.126 64.8064 110.737 66.8801C110.706 67.0444 110.675 67.2069 110.641 67.3695C109.907 70.9867 108.582 74.4584 106.72 77.645C106.621 77.817 106.519 77.9891 106.416 78.1542C104.581 81.1745 102.285 83.8901 99.613 86.203C99.4805 86.3182 99.3481 86.4326 99.2139 86.547C93.4706 91.3791 86.2799 94.1578 78.7798 94.4435V60.5911H111.32Z" fill="#F0F0F0"/>
<path d="M75.4925 94.4727C75.9424 94.4727 76.3896 94.4615 76.8351 94.4434V60.5901L52.2158 85.2095C58.4999 91.1676 66.8329 94.4836 75.4925 94.4718V94.4727Z" fill="#CACACA"/>
<path d="M75.5383 24.2761C66.5521 24.2761 57.9339 27.8459 51.5797 34.2001C45.2255 40.5543 41.6558 49.1724 41.6558 58.1587H76.9196V24.3062C76.4595 24.2882 75.9993 24.2761 75.5383 24.2761Z" fill="#8B5CF6"/>
<path d="M67.4549 60.591L60.3316 67.7143L60.0985 67.9474L60.0933 67.9526L53.8818 74.1633L53.6452 74.3998L46.9365 81.1086L46.7 81.3451L42.8373 85.2061C39.4834 82.0433 36.8122 78.2275 34.9883 73.9937C33.1643 69.7599 32.2261 65.1976 32.2315 60.5876L67.4549 60.591Z" fill="#8B5CF6"/>
<path d="M169.935 166.423H314.681C315.047 166.417 315.411 166.483 315.752 166.619C316.093 166.755 316.403 166.957 316.664 167.214C316.926 167.471 317.134 167.778 317.275 168.116C317.417 168.454 317.49 168.817 317.49 169.184C317.49 169.55 317.417 169.913 317.275 170.251C317.134 170.589 316.926 170.896 316.664 171.153C316.403 171.41 316.093 171.612 315.752 171.748C315.411 171.884 315.047 171.95 314.681 171.944H169.935C169.212 171.931 168.522 171.635 168.015 171.118C167.507 170.602 167.223 169.907 167.223 169.184C167.223 168.46 167.507 167.765 168.015 167.249C168.522 166.732 169.212 166.436 169.935 166.423Z" fill="#575757"/>
<path d="M169.935 180.215H314.681C315.047 180.208 315.411 180.275 315.752 180.411C316.093 180.546 316.403 180.749 316.664 181.006C316.926 181.263 317.134 181.569 317.275 181.907C317.417 182.245 317.49 182.608 317.49 182.975C317.49 183.342 317.417 183.705 317.275 184.043C317.134 184.381 316.926 184.688 316.664 184.944C316.403 185.201 316.093 185.404 315.752 185.54C315.411 185.675 315.047 185.742 314.681 185.736H169.935C169.212 185.723 168.522 185.426 168.015 184.91C167.507 184.394 167.223 183.699 167.223 182.975C167.223 182.251 167.507 181.556 168.015 181.04C168.522 180.524 169.212 180.227 169.935 180.215Z" fill="#575757"/>
<path d="M169.935 194.006H314.681C315.047 194 315.411 194.066 315.752 194.202C316.093 194.338 316.403 194.54 316.664 194.797C316.926 195.054 317.134 195.361 317.275 195.699C317.417 196.037 317.49 196.4 317.49 196.767C317.49 197.133 317.417 197.496 317.275 197.835C317.134 198.173 316.926 198.479 316.664 198.736C316.403 198.993 316.093 199.196 315.752 199.331C315.411 199.467 315.047 199.534 314.681 199.527H169.935C169.212 199.515 168.522 199.218 168.015 198.702C167.507 198.185 167.223 197.491 167.223 196.767C167.223 196.043 167.507 195.348 168.015 194.832C168.522 194.316 169.212 194.019 169.935 194.006Z" fill="#575757"/>
<path d="M169.935 106.997H314.681C315.047 106.991 315.411 107.058 315.752 107.193C316.093 107.329 316.403 107.532 316.664 107.788C316.926 108.045 317.134 108.352 317.275 108.69C317.417 109.028 317.49 109.391 317.49 109.758C317.49 110.125 317.417 110.488 317.275 110.826C317.134 111.164 316.926 111.47 316.664 111.727C316.403 111.984 316.093 112.187 315.752 112.322C315.411 112.458 315.047 112.525 314.681 112.518H169.935C169.212 112.506 168.522 112.209 168.015 111.693C167.507 111.177 167.223 110.482 167.223 109.758C167.223 109.034 167.507 108.339 168.015 107.823C168.522 107.307 169.212 107.01 169.935 106.997Z" fill="#8B5CF6"/>
<path d="M169.935 120.788H314.681C315.047 120.782 315.411 120.848 315.752 120.984C316.093 121.12 316.403 121.322 316.664 121.579C316.926 121.836 317.134 122.143 317.275 122.481C317.417 122.819 317.49 123.182 317.49 123.549C317.49 123.915 317.417 124.278 317.275 124.617C317.134 124.955 316.926 125.261 316.664 125.518C316.403 125.775 316.093 125.977 315.752 126.113C315.411 126.249 315.047 126.316 314.681 126.309H169.935C169.212 126.296 168.522 126 168.015 125.484C167.507 124.967 167.223 124.273 167.223 123.549C167.223 122.825 167.507 122.13 168.015 121.614C168.522 121.098 169.212 120.801 169.935 120.788Z" fill="#8B5CF6"/>
<path d="M169.935 134.58H314.681C315.047 134.573 315.411 134.64 315.752 134.776C316.093 134.912 316.403 135.114 316.664 135.371C316.926 135.628 317.134 135.934 317.275 136.273C317.417 136.611 317.49 136.974 317.49 137.34C317.49 137.707 317.417 138.07 317.275 138.408C317.134 138.746 316.926 139.053 316.664 139.31C316.403 139.567 316.093 139.769 315.752 139.905C315.411 140.041 315.047 140.107 314.681 140.101H169.935C169.212 140.088 168.522 139.792 168.015 139.275C167.507 138.759 167.223 138.064 167.223 137.34C167.223 136.617 167.507 135.922 168.015 135.405C168.522 134.889 169.212 134.593 169.935 134.58Z" fill="#8B5CF6"/>
<path d="M325.51 242.856H422.765V183.125H421.268V240.76H325.51V242.856Z" fill="#8B5CF6" fill-opacity="0.5"/>
<path d="M422.52 183.124C427.3 183.124 431.175 179.249 431.175 174.469C431.175 169.689 427.3 165.814 422.52 165.814C417.74 165.814 413.865 169.689 413.865 174.469C413.865 179.249 417.74 183.124 422.52 183.124Z" fill="#8B5CF6"/>
<path d="M324.761 245.523C326.673 245.523 328.223 243.973 328.223 242.061C328.223 240.149 326.673 238.599 324.761 238.599C322.849 238.599 321.299 240.149 321.299 242.061C321.299 243.973 322.849 245.523 324.761 245.523Z" fill="#8B5CF6"/>
<path d="M173.857 155.056H71.5684V110.205H73.1415V153.482H173.858L173.857 155.056Z" fill="#8B5CF6" fill-opacity="0.5"/>
<path d="M71.7752 126.31C76.5553 126.31 80.4304 122.435 80.4304 117.655C80.4304 112.874 76.5553 108.999 71.7752 108.999C66.9951 108.999 63.1201 112.874 63.1201 117.655C63.1201 122.435 66.9951 126.31 71.7752 126.31Z" fill="#8B5CF6"/>
<path d="M173.858 157.388C175.77 157.388 177.32 155.838 177.32 153.926C177.32 152.014 175.77 150.464 173.858 150.464C171.946 150.464 170.396 152.014 170.396 153.926C170.396 155.838 171.946 157.388 173.858 157.388Z" fill="#8B5CF6"/>
<path d="M169.935 226.211H314.681C315.047 226.204 315.411 226.271 315.752 226.407C316.093 226.543 316.403 226.745 316.664 227.002C316.926 227.259 317.134 227.565 317.275 227.903C317.417 228.242 317.49 228.605 317.49 228.971C317.49 229.338 317.417 229.701 317.275 230.039C317.134 230.377 316.926 230.684 316.664 230.941C316.403 231.198 316.093 231.4 315.752 231.536C315.411 231.672 315.047 231.738 314.681 231.732H169.935C169.212 231.719 168.522 231.422 168.015 230.906C167.507 230.39 167.223 229.695 167.223 228.971C167.223 228.247 167.507 227.553 168.015 227.036C168.522 226.52 169.212 226.224 169.935 226.211Z" fill="#8B5CF6"/>
<path d="M169.935 240.002H314.681C315.047 239.995 315.411 240.062 315.752 240.198C316.093 240.333 316.403 240.536 316.664 240.793C316.926 241.05 317.134 241.356 317.275 241.694C317.417 242.032 317.49 242.395 317.49 242.762C317.49 243.129 317.417 243.492 317.275 243.83C317.134 244.168 316.926 244.475 316.664 244.732C316.403 244.988 316.093 245.191 315.752 245.327C315.411 245.462 315.047 245.529 314.681 245.523H169.935C169.212 245.51 168.522 245.213 168.015 244.697C167.507 244.181 167.223 243.486 167.223 242.762C167.223 242.038 167.507 241.343 168.015 240.827C168.522 240.311 169.212 240.014 169.935 240.002Z" fill="#8B5CF6"/>
<path d="M169.935 253.793H314.681C315.047 253.787 315.411 253.853 315.752 253.989C316.093 254.125 316.403 254.327 316.664 254.584C316.926 254.841 317.134 255.148 317.275 255.486C317.417 255.824 317.49 256.187 317.49 256.554C317.49 256.92 317.417 257.283 317.275 257.621C317.134 257.96 316.926 258.266 316.664 258.523C316.403 258.78 316.093 258.982 315.752 259.118C315.411 259.254 315.047 259.321 314.681 259.314H169.935C169.212 259.301 168.522 259.005 168.015 258.489C167.507 257.972 167.223 257.277 167.223 256.554C167.223 255.83 167.507 255.135 168.015 254.619C168.522 254.102 169.212 253.806 169.935 253.793Z" fill="#8B5CF6"/>
</svg>
