<svg width="657px" height="762px" viewBox="0 0 657 762" version="1.1" xmlns="http://www.w3.org/2000/svg" xmlns:xlink="http://www.w3.org/1999/xlink">
 <title>
  Group
 </title>
 <g id="Page-1" stroke="none" stroke-width="1" fill="none" fill-rule="evenodd">
  <g id="Group" transform="translate(0.899572, 0.800000)" fill="#2569E6" fill-rule="nonzero">
   <path d="M118.700428,0 L475.200428,0 C541.700428,0 594.000428,52.3 591.500428,116.5 L591.500428,506.3 C591.500428,570.4 539.300428,622.7 475.100428,622.7 L396.700428,622.7 L439.500428,760.5 L232.800428,622.7 L118.800428,622.7 C52.3004283,622.7 0.000142346175,570.4 0.000142346175,503.9 L0.000142346175,116.6 C-0.0995717371,52.3 52.2004283,0 118.700428,0 Z M257.200428,427.8 C245.100428,421.1 235.400428,411.4 228.100428,398.6 C220.800428,385.8 217.200428,370.4 217.200428,352.5 L217.200428,144.8 C217.200428,141.6 216.500428,139.1 215.000428,137.5 C213.600428,135.8 211.200428,135 207.800428,135 L154.700428,135 C153.500428,135 152.300428,135.2 151.200428,135.7 C150.100428,136.2 149.100428,136.9 148.400428,137.9 C146.700428,139.8 145.800428,142.3 145.900428,144.9 L145.900428,351.7 C145.900428,384.8 152.700428,412.5 166.300428,435 C179.900428,457.4 198.100428,474.1 221.100428,485.1 C244.000428,496.1 269.600428,501.5 297.800428,501.5 C326.100428,501.5 351.700428,496.1 374.600428,485.4 C397.500428,474.7 415.700428,458.2 429.300428,435.8 C442.900428,413.4 449.700428,385.6 449.700428,352.4 L449.700428,145 C449.700428,143.7 449.500428,142.4 449.000428,141.1 C448.500428,139.9 447.800428,138.7 446.900428,137.8 C445.000428,135.9 442.500428,134.9 439.300428,134.9 L388.700428,134.9 C385.700428,134.9 383.200428,135.8 381.400428,137.7 C379.500428,139.6 378.600428,142 378.600428,145 L378.600428,352.5 C378.600428,369.2 375.000428,384.1 367.800428,397 C360.600428,410 350.900428,420 338.600428,427.1 C326.300428,434.2 312.700428,437.7 297.900428,437.7 C282.800428,437.8 269.300428,434.5 257.200428,427.8 Z" id="Shape">
   </path>
   <path d="M623.000428,-1.42108547e-14 C605.100428,-1.42108547e-14 590.300428,14.4 590.300428,32.7 C590.300428,50.6 605.100428,65.4 623.000428,65.4 C640.900428,65.4 655.700428,51 655.700428,32.7 C655.700428,14.8 641.300428,-1.42108547e-14 623.000428,-1.42108547e-14 Z M623.000428,58.5 C609.300428,58.5 597.600428,46.8 597.600428,32.7 C597.600428,18.6 609.300428,6.9 623.000428,6.9 C636.700428,6.9 648.400428,18.2 648.400428,32.7 C648.500428,46.8 636.800428,58.5 623.000428,58.5 Z" id="Shape">
   </path>
   <path d="M610.400428,14.9 C610.600428,14.7 610.800428,14.6 611.100428,14.6 L626.400428,14.6 C628.500428,14.6 630.500428,15.2 632.200428,16.2 C633.900428,17.3 635.300428,18.7 636.300428,20.5 C637.300428,22.3 637.800428,24.2 637.800428,26.3 C637.800428,28.3 637.200428,30.2 636.100428,32 C635.000428,33.8 633.500428,35.2 631.700428,36.3 L638.300428,49.3 C638.300428,49.4 638.400428,49.5 638.400428,49.7 C638.400428,49.9 638.300428,50.1 638.200428,50.2 C638.100428,50.3 637.900428,50.4 637.700428,50.4 L631.500428,50.4 C631.200428,50.4 631.000428,50.4 630.900428,50.2 C630.700428,50.1 630.600428,49.8 630.400428,49.5 L624.700428,38 L617.400428,38 L617.400428,49.4 C617.400428,50 617.100428,50.4 616.400428,50.4 L611.100428,50.4 C610.500428,50.4 610.200428,50.1 610.200428,49.4 L610.200428,15.6 C610.200428,15.3 610.300428,15.1 610.400428,14.9 Z M617.200428,31.9 L624.700428,31.9 C625.800428,31.9 626.800428,31.7 627.700428,31.1 C628.600428,30.6 629.300428,29.9 629.800428,29.1 C630.300428,28.2 630.600428,27.3 630.600428,26.3 C630.600428,25.3 630.400428,24.4 629.800428,23.5 C629.300428,22.6 628.600428,22 627.700428,21.4 C626.800428,20.9 625.800428,20.6 624.700428,20.6 L617.200428,20.6 L617.200428,31.9 Z" id="Shape">
   </path>
  </g>
 </g>
</svg>