
<svg fill="none" height="74" viewBox="0 0 301 74" width="301" xmlns="http://www.w3.org/2000/svg" xmlns:xlink="http://www.w3.org/1999/xlink"><clipPath id="a"><path d="m0 0h301v74h-301z"/></clipPath><g clip-path="url(#a)"><path d="m56.1095 73.5832-8.7257-8.7256c-.922-.9221-1.6641-2.0015-2.1589-3.1934-2.6312-6.4543-.045-13.2459 6.027-16.3269.3823-.2024.7871-.3598 1.1919-.4947 4.7676-1.5517 9.5802-.3374 12.8861 2.9685l8.2758 8.2759-4.5652 4.5652-8.6807-8.6807c-.2248-.2249-.4722-.4273-.7646-.5622-2.5637-1.3043-5.3523-.8321-7.1514.9895-1.8216 1.8216-2.2939 4.5877-.967 7.1739.1349.2699.3373.5397.5622.7646l8.6582 8.6582z" fill="#9f7aea"/><path d="m.0899658 56.042 8.7256342-8.7032c.92204-.922 2.0015-1.6641 3.1934-2.1589 6.4543-2.6312 13.2459-.045 16.3268 6.027.2024.3823.3599.7871.4948 1.1919 1.5517 4.7676.3373 9.5802-2.9685 12.8861l-8.2759 8.2758-4.5877-4.5877 8.6807-8.6806c.2249-.2249.4273-.4723.5622-.7647 1.3043-2.5637.8321-5.3523-.9895-7.1514-1.8216-1.8216-4.5877-2.2938-7.1739-.967-.2699.1349-.5398.3373-.7646.5622l-8.65822 8.6582z" fill="#553c9a"/><path d="m56.6042 29.4153c-4.6777 0-8.9505-2.5637-11.2219-7.039-.2024-.4048-.3823-.8096-.5172-1.2369-1.5293-4.7451-.3149-9.5577 2.9685-12.86354l8.2758-8.27586 4.6102 4.58771-8.6581 8.65819c-.2249.2249-.4273.4722-.5623.7646-1.3268 2.5862-.8545 5.3523.9671 7.1739 1.7991 1.7991 4.5652 2.2939 7.1514.9895.2923-.1349.5397-.3373.7646-.5622l8.6582-8.7032 4.5877 4.5878-8.2759 8.2758c-2.3163 2.3388-5.4423 3.6432-8.7481 3.6432z" fill="#553c9a"/><path d="m36.8366 46.7316c5.4897 0 9.94-4.4503 9.94-9.94s-4.4503-9.94-9.94-9.94-9.94 4.4503-9.94 9.94 4.4503 9.94 9.94 9.94z" fill="#553c9a"/><path d="m17.5862.0224915 8.7257 8.7256385c.922.92204 1.6641 2.00147 2.1589 3.19337 2.6312 6.4543.045 13.2459-6.027 16.3269-.3823.2024-.7871.3598-1.1919.4947-4.7676 1.5517-9.5802.3374-12.88607-2.9685l-8.2758642-8.2759 4.5877042-4.5877 8.68063 8.6807c.2249.2249.4723.4273.7646.5622 2.5638 1.3044 5.3524.8321 7.1515-.9895 1.8216-1.8216 2.2938-4.5877.967-7.1739-.1349-.2699-.3373-.5397-.5622-.7646l-8.6807-8.6357z" fill="#9f7aea"/><g fill="#553c9a"><path d="m88.0117 38.4695c0 1.9495-.0886 3.0571.2215 4.9623.9305 5.494 4.4307 8.3739 10.1019 8.3739 3.2789 0 5.7159-.8861 7.5759-2.9685 2.482-2.747 2.747-5.9371 2.747-10.2791v-10.855h-5.892v12.5387c0 3.9875-1.285 6.1585-4.4309 6.1585-3.1015 0-4.4306-2.2153-4.4306-6.4244v-12.2728h-5.8928z"/><path d="m120.515 38.824-8.905 12.4057h6.779l5.538-7.7093 5.627 7.7093h6.823l-9.039-12.4057 8.064-11.1209h-6.823l-4.652 6.4244-4.608-6.4244h-6.868z"/><path d="m160.328 39.6215c0-4.8294 2.126-7.1333 5.095-7.1333 2.658 0 4.032 1.9051 4.032 5.7598v12.9817h5.892v-13.7792c0-3.1015-.177-5.6712-1.728-7.6207-1.329-1.6837-3.677-2.747-6.291-2.747-3.545 0-5.716 1.4621-7.887 4.2091-1.462-2.8356-3.943-4.2091-6.867-4.2091-2.791 0-5.361 1.152-7.355 3.323v-2.7027h-5.893v23.5266h5.893v-11.5196c0-4.8294 2.127-7.2219 5.051-7.2219 3.279 0 4.165 2.7912 4.165 7.3548v11.3867h5.893z"/><path d="m197.132 44.3179c-1.639 1.5951-3.323 2.304-5.848 2.304-3.367 0-6.026-1.9495-6.602-5.4497h18c0-.5317.044-.7975.044-1.3292 0-7.4435-4.087-12.7602-11.531-12.7602-7.576 0-12.228 5.937-12.228 12.3614 0 6.9118 4.829 12.4058 12.317 12.4058 4.962 0 8.285-1.595 10.811-5.1838zm-12.184-7.7979c1.152-2.9685 3.412-4.4306 6.336-4.4306 3.146 0 5.671 1.6836 6.469 4.4306z"/><path d="m208.116 27.7031h-3.013v5.0509h3.013v18.4757h5.893v-18.4757h3.5v-5.0509h-3.5v-8.6841h-5.893z"/><path d="m227.302 27.7031h-5.095v23.5266h5.892v-9.5258c0-1.2849 0-2.747.045-4.0319.133-3.4559 1.462-5.4054 3.145-5.4054.621 0 1.285.2659 1.728.4874l1.817-5.0509c-.576-.2659-1.329-.6203-2.57-.6203-1.949 0-3.854 1.152-4.962 3.5888z"/><path d="m238.159 51.2297h5.893v-23.5266h-5.893zm2.924-33.2297c-2.038 0-3.766 1.5507-3.766 3.5888 0 2.171 1.595 4.0762 3.766 4.0762 2.083 0 3.766-1.6837 3.766-3.766 0-2.1267-1.639-3.899-3.766-3.899z"/><path d="m266.537 43.7419c-1.462 1.8166-3.544 2.7027-6.158 2.7027-4.342 0-7.134-2.8356-7.134-6.8231 0-4.0762 2.88-7.1333 7.399-7.1333 2.57 0 4.21.8861 5.893 2.6583l4.918-2.7027c-2.348-3.4558-6.247-5.361-10.855-5.361-7.798 0-13.292 5.4054-13.292 12.4501 0 6.8674 5.184 12.3171 13.204 12.3171 4.607 0 8.152-1.6393 10.677-4.918z"/><path d="m281.52 42.0583c1.64.8418 2.614 1.595 2.614 2.6141 0 1.0633-1.152 1.9051-2.614 1.9051-1.551 0-3.544-1.1519-4.918-2.7469l-3.633 3.9875c2.038 2.6584 4.829 4.0319 8.241 4.0319 5.14 0 8.463-3.1457 8.463-7.3548 0-3.5002-2.083-5.5383-5.982-7.5321l-2.171-1.1077c-1.285-.6646-2.126-1.0633-2.126-1.9494 0-.9305.93-1.4178 2.126-1.4178 1.418 0 2.747.8418 4.076 2.171l3.634-3.6775c-1.906-2.5254-4.697-3.8989-7.754-3.8989-4.519 0-7.621 3.1014-7.621 6.7788 0 2.9686 1.905 5.2725 5.671 7.1777z"/></g></g></svg>